<?xml version="1.0" encoding="UTF-8"?>
<svg width="165px" height="142px" viewBox="0 0 165 142" version="1.1" xmlns="http://www.w3.org/2000/svg" xmlns:xlink="http://www.w3.org/1999/xlink">
    <!-- Generator: Sketch 51.2 (57519) - http://www.bohemiancoding.com/sketch -->
    <title>HRAFF Logo</title>
    <desc>Created with Sketch.</desc>
    <defs></defs>
    <g id="Home-Page" stroke="none" stroke-width="1" fill="none" fill-rule="evenodd">
        <g id="Desktop" transform="translate(-39.000000, -40.000000)" fill="#1F1718" fill-rule="nonzero" stroke="#1F1718" stroke-width="0.3">
            <g id="HRAFF-Logo" transform="translate(40.000000, 40.000000)">
                <path d="M93.56,79.07 C92.5686883,79.1336431 91.5953162,78.7836991 90.8714564,78.1034225 C90.1475966,77.4231459 89.7379591,76.4733505 89.74,75.48 C89.74,73.48 91.04,72.55 92.59,71.48 L97.59,77.48 C96.529301,78.5390875 95.0888848,79.1296582 93.59,79.12 L93.56,79.07 Z M93.89,63 C94.4571945,62.9707006 95.0100978,63.1839319 95.4107445,63.5864865 C95.8113913,63.9890411 96.0219935,64.5429511 95.99,65.11 C95.8851278,66.0553865 95.3041873,66.8815292 94.45,67.3 C94.45,67.3 93.77,67.78 93.45,67.98 C92.39,66.74 91.82,65.98 91.82,65.08 C91.7973629,64.5234715 92.00783,63.9827128 92.4007304,63.5879143 C92.7936307,63.1931159 93.3333688,62.9800452 93.89,63 Z M100.68,71 C100.765328,72.4945555 100.369281,73.9771014 99.55,75.23 L95.1,69.93 L96.65,68.86 C98.0002908,68.0952886 98.8533571,66.6810942 98.9,65.13 C98.9144449,63.8251512 98.382282,62.5737759 97.4324234,61.6790091 C96.4825648,60.7842423 95.201661,60.3277088 93.9,60.42 C90.76,60.42 88.74,62.42 88.74,65.1 C88.74,67.1 89.99,68.53 90.94,69.63 C88.86,71 86.76,72.63 86.76,75.63 C86.76,79.45 89.19,81.91 93.57,81.91 C95.7366263,81.9561382 97.8344057,81.1479184 99.41,79.66 L101.13,81.74 L103.49,81.74 L127.19,91.21 L121.4,103.7 L115.23,90.57 L112,90.57 L112,111.67 L115.2,111.67 L115.2,97.56 L120.2,107.85 L122.57,107.85 L127.43,97.56 L127.43,111.67 L130.63,111.67 L130.63,90.57 L128.82,90.57 L104.24,80.75 L101.47,77.43 C102.906772,75.5823197 103.649913,73.2891986 103.57,70.95 L100.68,71 Z M28.3,21.78 C32.6,21.78 35.89,18.84 35.89,14.49 L35.89,0.49 L32.69,0.49 L32.69,14.34 C32.7988651,15.5495004 32.3776202,16.7467372 31.5353793,17.6215933 C30.6931385,18.4964494 29.5127622,18.9628556 28.3,18.9 C25.66,18.9 23.94,17.15 23.94,14.34 L23.94,0.5 L20.74,0.5 L20.74,14.5 C20.74,18.85 24,21.79 28.3,21.79 L28.3,21.78 Z M44.89,7.49 L49.86,17.77 L52.23,17.77 L57.09,7.49 L57.09,21.6 L60.29,21.6 L60.29,0.5 L57.09,0.5 L51.05,13.63 L44.89,0.5 L41.68,0.5 L41.68,21.6 L44.89,21.6 L44.89,7.49 Z M70.07,14.63 L73.36,5.27 L76.56,14.63 L70.07,14.63 Z M72,0.5 L64.26,21.6 L67.66,21.6 L69.12,17.36 L77.45,17.36 L78.9,21.6 L82.31,21.6 L74.57,0.5 L72,0.5 Z M89.47,6.75 L99.22,21.6 L102.15,21.6 L102.15,0.5 L98.95,0.5 L98.95,15.31 L89.2,0.5 L86.27,0.5 L86.27,21.6 L89.47,21.6 L89.47,6.75 Z M40.62,30.43 L37.42,30.43 L37.42,51.53 L40.62,51.53 L40.62,30.43 Z M53.8,33.13 C56.0039762,33.0341958 57.9244996,34.6180882 58.25,36.8 L61.48,36.8 C61.0281303,32.9435138 57.6794697,30.0875598 53.8,30.25 C51.7202304,30.2046385 49.7145838,31.0228264 48.26,32.51 C46.18,34.58 46.21,36.92 46.21,40.99 C46.21,45.06 46.21,47.39 48.26,49.46 C51.4488804,52.515264 56.4974505,52.4529909 59.61,49.32 C61,47.83 61.51,46.08 61.51,43.32 L61.51,40.12 L53.8,40.12 L53.8,42.85 L58.31,42.85 L58.31,44 C58.3842733,45.2019403 58.0021395,46.3876265 57.24,47.32 C56.3620257,48.2885826 55.1069722,48.8285475 53.8,48.8 C52.6307566,48.8226927 51.5045246,48.3591631 50.69,47.52 C49.69,46.4 49.41,45.19 49.41,40.95 C49.41,36.71 49.65,35.52 50.69,34.4 C51.4986466,33.5487758 52.6260184,33.0739021 53.8,33.09 L53.8,33.13 Z M67.04,30.43 L67.04,51.53 L70.25,51.53 L70.25,42.32 L78.81,42.32 L78.81,51.53 L82.01,51.53 L82.01,30.43 L78.81,30.43 L78.81,39.44 L70.25,39.44 L70.25,30.43 L67.04,30.43 Z M95.51,51.53 L95.51,33.31 L101.33,33.31 L101.33,30.43 L86.51,30.43 L86.51,33.31 L92.32,33.31 L92.32,51.53 L95.51,51.53 Z M111.37,48.84 C109.366436,48.9788593 107.399744,48.2504546 105.97,46.84 L103.84,48.95 C105.84,50.95 108.13,51.73 111.31,51.73 C115.72,51.73 118.89,49.42 118.89,45.54 C118.983521,43.9155848 118.358206,42.332186 117.18,41.21 C116.044244,40.2802425 114.64496,39.7310235 113.18,39.64 L110.78,39.28 C109.912241,39.1740616 109.091362,38.8276993 108.41,38.28 C107.859854,37.7650137 107.566782,37.0323319 107.61,36.28 C107.61,34.41 108.97,32.99 111.47,32.99 C113.157803,32.8879333 114.814596,33.4762935 116.06,34.62 L118.06,32.62 C116.304111,30.9450841 113.932726,30.0725592 111.51,30.21 C107.12,30.21 104.51,32.73 104.51,36.41 C104.429601,37.9019086 104.989885,39.3571893 106.05,40.41 C107.179012,41.3693316 108.575157,41.9592032 110.05,42.1 L112.54,42.46 C113.392048,42.4750825 114.21229,42.7862087 114.86,43.34 C115.434509,43.9228736 115.732847,44.7232937 115.68,45.54 C115.68,47.54 114.08,48.77 111.33,48.77 L111.37,48.84 Z M49.52,81.64 L49.52,63.41 L55.33,63.41 L55.33,60.54 L40.51,60.54 L40.51,63.41 L46.32,63.41 L46.32,81.64 L49.52,81.64 Z M58.55,66.56 C58.4759829,68.0508925 59.0352997,69.5036637 60.09,70.56 C61.2190116,71.5193316 62.6151574,72.1092032 64.09,72.25 L66.58,72.61 C67.4316748,72.6207764 68.2512609,72.9365477 68.89,73.5 C69.4758534,74.0726493 69.7826277,74.8724538 69.73,75.69 C69.73,77.69 68.12,78.92 65.37,78.92 C63.3664363,79.0588593 61.3997437,78.3304546 59.97,76.92 L57.84,79 C59.84,81 62.14,81.78 65.31,81.78 C69.73,81.78 72.9,79.47 72.9,75.59 C72.9895777,73.9642418 72.3607305,72.3811554 71.18,71.26 C70.0606262,70.3418125 68.6840901,69.7932943 67.24,69.69 L64.84,69.33 C63.9687411,69.2258688 63.1441673,68.8794092 62.46,68.33 C61.9123559,67.813982 61.6228179,67.0809744 61.67,66.33 C61.67,64.46 63.03,63.04 65.51,63.04 C67.2015242,62.9328197 68.8633573,63.5216867 70.11,64.67 L72.11,62.67 C70.3505186,61.001833 67.9807286,60.133513 65.56,60.27 C61.17,60.27 58.5,62.78 58.5,66.46 L58.55,66.56 Z M30.15,69.85 L25.41,69.85 L25.41,63.24 L30.15,63.24 C32.29,63.24 33.74,64.48 33.74,66.56 C33.74,68.64 32.29,69.85 30.15,69.85 Z M36.94,66.53 C36.94,62.94 34.39,60.37 30.39,60.37 L22.21,60.37 L22.21,81.47 L25.41,81.47 L25.41,72.57 L29.41,72.57 L33.86,81.47 L37.59,81.47 L32.73,72.13 C35.2853365,71.5002748 37.0449528,69.1596926 36.94,66.53 Z" id="Shape"></path>
                <path d="M5.79,74.5 L9.08,65.14 L12.28,74.5 L5.79,74.5 Z M20.34,39.92 L20.34,33.31 L25.08,33.31 C27.22,33.31 28.67,34.55 28.67,36.62 C28.67,38.69 27.22,39.92 25.08,39.92 L20.34,39.92 Z M45.34,123.38 L45.34,121.47 L67.62,111.67 L70.35,111.67 L70.35,102.75 L79.12,102.75 L79.12,99.87 L70.38,99.87 L70.38,93.44 L80.66,93.44 L80.66,90.57 L67.18,90.57 L67.18,100.51 L17.88,81.07 L10.55,61.07 L32.55,51.55 L32.03,50.55 L27.66,42.2 C30.2153365,41.5702748 31.9749528,39.2296926 31.87,36.6 C31.87,33.01 29.32,30.43 25.32,30.43 L18.13,30.43 L3.13,20.85 L3.13,12.38 L11.7,12.38 L11.7,21.6 L15,21.6 L15,0.5 L11.8,0.5 L11.8,9.5 L3.18,9.5 L3.18,0.5 L0,0.5 L0,21.6 L2.29,21.6 L17.16,31.13 L17.16,51.53 L20.36,51.53 L20.36,42.64 L24.36,42.64 L28.81,51.53 L29.72,51.53 L9.31,60.37 L7.72,60.37 L0,81.47 L3.41,81.47 L4.86,77.23 L13.19,77.23 L14.64,81.47 L15.86,81.47 L67.2,101.72 L67.2,110.65 L44.77,120.5 L31.88,120.5 L31.88,141.61 L35.09,141.61 L35.09,132.68 L43.86,132.68 L43.86,129.81 L35.09,129.81 L35.09,123.38 L45.34,123.38 Z" id="Shape"></path>
                <path d="M49.95,141.6 L63.44,141.6 L63.44,138.73 L53.15,138.73 L53.15,132.39 L61.92,132.39 L61.92,129.54 L53.15,129.54 L53.15,123.38 L63.44,123.38 L63.44,120.5 L49.95,120.5 L49.95,141.6 Z M80.49,131.26 C79.3706262,130.341813 77.9940901,129.793294 76.55,129.69 L74.15,129.34 C73.2829258,129.231498 72.4627205,128.88542 71.78,128.34 C71.2238486,127.829138 70.929588,127.093487 70.98,126.34 C70.98,124.47 72.34,123.05 74.83,123.05 C76.5189603,122.939671 78.1789086,123.529152 79.42,124.68 L81.42,122.68 C79.6592425,121.013892 77.2903721,120.145909 74.87,120.28 C70.48,120.28 67.81,122.81 67.81,126.48 C67.7334476,127.971298 68.2931472,129.425063 69.35,130.48 C70.4800304,131.437676 71.8756341,132.027319 73.35,132.17 L75.84,132.52 C76.6915889,132.540465 77.5090296,132.858948 78.15,133.42 C78.7287968,133.99663 79.0312224,134.794596 78.98,135.61 C78.98,137.61 77.38,138.84 74.62,138.84 C72.6185029,138.985184 70.6523468,138.255627 69.23,136.84 L67.15,139 C69.15,141 71.45,141.78 74.62,141.78 C79.04,141.78 82.21,139.47 82.21,135.59 C82.30511,133.963345 81.6753701,132.378012 80.49,131.26 Z M85.06,123.38 L90.87,123.38 L90.87,141.6 L94.07,141.6 L94.07,123.38 L99.88,123.38 L99.88,120.5 L85.06,120.5 L85.06,123.38 Z M104.36,141.6 L107.56,141.6 L107.56,120.5 L104.36,120.5 L104.36,141.6 Z M124.91,120.5 L120.05,135.85 L115.19,120.5 L111.87,120.5 L118.81,141.6 L121.3,141.6 L128.29,120.5 L124.91,120.5 Z M133.71,134.64 L137,125.27 L140.2,134.64 L133.71,134.64 Z M135.63,120.5 L127.9,141.61 L131.31,141.61 L132.76,137.37 L141.09,137.37 L142.54,141.61 L146,141.61 L138.26,120.5 L135.63,120.5 Z M153.55,138.73 L153.55,120.5 L150.35,120.5 L150.35,141.6 L163.72,141.6 L163.72,138.73 L153.55,138.73 Z M88.44,90.57 L85.24,90.57 L85.24,111.67 L88.44,111.67 L88.44,90.57 Z M97.61,90.57 L94.41,90.57 L94.41,111.67 L107.77,111.67 L107.77,108.79 L97.61,108.79 L97.61,90.57 Z" id="Shape"></path>
            </g>
        </g>
    </g>
</svg>